<?xml version="1.0" encoding="UTF-8"?>
<svg xmlns="http://www.w3.org/2000/svg" xmlns:xlink="http://www.w3.org/1999/xlink" width="854" height="480" viewBox="0 0 854 480">
<defs>
<g>
<g id="glyph-0-0">
<path d="M 1.648438 -0.34375 L 2.265625 -0.34375 L 2.265625 0 L 0.367188 0 L 0.367188 -0.34375 L 0.984375 -0.34375 L 0.984375 -4.511719 L 0.367188 -4.511719 L 0.367188 -4.859375 L 2.265625 -4.859375 L 2.265625 -4.511719 L 1.648438 -4.511719 Z "/>
</g>
<g id="glyph-0-1">
<path d="M 0.273438 0 L 0.273438 -0.34375 L 0.8125 -0.34375 L 0.8125 -3.113281 L 0.242188 -3.113281 L 0.242188 -3.460938 L 1.414062 -3.460938 L 1.414062 -2.84375 C 1.523438 -3.078125 1.667969 -3.257812 1.84375 -3.375 C 2.019531 -3.496094 2.226562 -3.554688 2.460938 -3.554688 C 2.84375 -3.554688 3.125 -3.445312 3.304688 -3.226562 C 3.484375 -3.007812 3.574219 -2.664062 3.574219 -2.199219 L 3.574219 -0.34375 L 4.109375 -0.34375 L 4.109375 0 L 2.453125 0 L 2.453125 -0.34375 L 2.972656 -0.34375 L 2.972656 -2.011719 C 2.972656 -2.433594 2.917969 -2.726562 2.816406 -2.882812 C 2.710938 -3.039062 2.527344 -3.117188 2.265625 -3.117188 C 1.988281 -3.117188 1.777344 -3.015625 1.628906 -2.8125 C 1.484375 -2.609375 1.414062 -2.316406 1.414062 -1.925781 L 1.414062 -0.34375 L 1.933594 -0.34375 L 1.933594 0 Z "/>
</g>
<g id="glyph-0-2">
<path d="M 1.367188 -1.902344 L 1.367188 -1.558594 C 1.367188 -1.140625 1.445312 -0.824219 1.605469 -0.605469 C 1.765625 -0.390625 1.996094 -0.28125 2.300781 -0.28125 C 2.605469 -0.28125 2.839844 -0.402344 2.996094 -0.648438 C 3.152344 -0.894531 3.230469 -1.253906 3.230469 -1.730469 C 3.230469 -2.210938 3.152344 -2.574219 2.996094 -2.816406 C 2.839844 -3.058594 2.605469 -3.179688 2.300781 -3.179688 C 1.996094 -3.179688 1.765625 -3.070312 1.605469 -2.851562 C 1.445312 -2.632812 1.367188 -2.316406 1.367188 -1.902344 M 0.769531 -3.113281 L 0.191406 -3.113281 L 0.191406 -3.460938 L 1.367188 -3.460938 L 1.367188 -2.917969 C 1.484375 -3.136719 1.632812 -3.296875 1.816406 -3.398438 C 1.996094 -3.503906 2.21875 -3.554688 2.488281 -3.554688 C 2.914062 -3.554688 3.257812 -3.386719 3.527344 -3.050781 C 3.796875 -2.714844 3.933594 -2.273438 3.933594 -1.730469 C 3.933594 -1.1875 3.796875 -0.75 3.527344 -0.410156 C 3.257812 -0.0742188 2.914062 0.09375 2.488281 0.09375 C 2.21875 0.09375 1.996094 0.0429688 1.816406 -0.0585938 C 1.632812 -0.164062 1.484375 -0.324219 1.367188 -0.539062 L 1.367188 1.039062 L 1.933594 1.039062 L 1.933594 1.386719 L 0.191406 1.386719 L 0.191406 1.039062 L 0.769531 1.039062 Z "/>
</g>
<g id="glyph-0-3">
<path d="M 2.359375 -3.460938 L 3.480469 -3.460938 L 3.480469 -0.34375 L 4.046875 -0.34375 L 4.046875 0 L 2.878906 0 L 2.878906 -0.613281 C 2.769531 -0.382812 2.625 -0.207031 2.453125 -0.0859375 C 2.273438 0.0351562 2.070312 0.09375 1.839844 0.09375 C 1.453125 0.09375 1.171875 -0.015625 0.992188 -0.234375 C 0.808594 -0.449219 0.71875 -0.792969 0.71875 -1.257812 L 0.71875 -3.113281 L 0.179688 -3.113281 L 0.179688 -3.460938 L 1.320312 -3.460938 L 1.320312 -1.445312 C 1.320312 -1.023438 1.375 -0.734375 1.476562 -0.578125 C 1.578125 -0.421875 1.761719 -0.34375 2.027344 -0.34375 C 2.304688 -0.34375 2.515625 -0.445312 2.664062 -0.652344 C 2.808594 -0.855469 2.878906 -1.152344 2.878906 -1.539062 L 2.878906 -3.113281 L 2.359375 -3.113281 Z "/>
</g>
<g id="glyph-0-4">
<path d="M 0.71875 -3.113281 L 0.191406 -3.113281 L 0.191406 -3.460938 L 0.71875 -3.460938 L 0.71875 -4.535156 L 1.320312 -4.535156 L 1.320312 -3.460938 L 2.449219 -3.460938 L 2.449219 -3.113281 L 1.320312 -3.113281 L 1.320312 -0.914062 C 1.320312 -0.621094 1.351562 -0.433594 1.40625 -0.351562 C 1.460938 -0.269531 1.566406 -0.226562 1.71875 -0.226562 C 1.875 -0.226562 1.988281 -0.273438 2.0625 -0.367188 C 2.132812 -0.457031 2.171875 -0.609375 2.175781 -0.8125 L 2.625 -0.8125 C 2.609375 -0.5 2.523438 -0.269531 2.371094 -0.125 C 2.214844 0.0234375 1.980469 0.09375 1.667969 0.09375 C 1.320312 0.09375 1.078125 0.0195312 0.933594 -0.136719 C 0.789062 -0.289062 0.71875 -0.546875 0.71875 -0.914062 Z "/>
</g>
</g>
</defs>
<g fill="rgb(34.509804%, 76.862745%, 86.666667%)" fill-opacity="1">
<use xlink:href="#glyph-0-0" x="30" y="26.1875"/>
<use xlink:href="#glyph-0-1" x="33" y="26.1875"/>
<use xlink:href="#glyph-0-2" x="37" y="26.1875"/>
<use xlink:href="#glyph-0-3" x="41" y="26.1875"/>
<use xlink:href="#glyph-0-4" x="45" y="26.1875"/>
</g>
</svg>
