<?xml version="1.0" encoding="UTF-8"?>
<svg xmlns="http://www.w3.org/2000/svg" xmlns:xlink="http://www.w3.org/1999/xlink" width="854" height="480" viewBox="0 0 854 480">
<defs>
<g>
<g id="glyph-0-0">
<path d="M 1.617188 -1.761719 L 2.222656 -2.59375 L 1.832031 -2.59375 L 1.832031 -2.882812 L 2.945312 -2.882812 L 2.945312 -2.59375 L 2.5625 -2.59375 L 1.789062 -1.527344 L 2.6875 -0.289062 L 3.066406 -0.289062 L 3.066406 0 L 1.734375 0 L 1.734375 -0.289062 L 2.101562 -0.289062 L 1.472656 -1.148438 L 0.84375 -0.289062 L 1.21875 -0.289062 L 1.21875 0 L 0.121094 0 L 0.121094 -0.289062 L 0.503906 -0.289062 L 1.300781 -1.382812 L 0.421875 -2.59375 L 0.0664062 -2.59375 L 0.0664062 -2.882812 L 1.355469 -2.882812 L 1.355469 -2.59375 L 1.011719 -2.59375 Z "/>
</g>
<g id="glyph-0-1">
<path d="M 0.539062 -3.878906 C 0.75 -3.960938 0.953125 -4.019531 1.148438 -4.0625 C 1.34375 -4.101562 1.527344 -4.125 1.695312 -4.125 C 2.089844 -4.125 2.402344 -4.039062 2.625 -3.867188 C 2.847656 -3.695312 2.957031 -3.457031 2.957031 -3.15625 C 2.957031 -2.910156 2.878906 -2.707031 2.726562 -2.542969 C 2.574219 -2.378906 2.355469 -2.269531 2.074219 -2.210938 C 2.40625 -2.164062 2.664062 -2.042969 2.847656 -1.847656 C 3.03125 -1.65625 3.121094 -1.402344 3.121094 -1.09375 C 3.121094 -0.714844 2.996094 -0.425781 2.742188 -0.222656 C 2.488281 -0.0234375 2.121094 0.078125 1.644531 0.078125 C 1.433594 0.078125 1.226562 0.0546875 1.023438 0.0117188 C 0.824219 -0.0351562 0.621094 -0.101562 0.421875 -0.195312 L 0.421875 -0.980469 L 0.726562 -0.980469 C 0.746094 -0.722656 0.832031 -0.523438 0.988281 -0.390625 C 1.148438 -0.257812 1.367188 -0.191406 1.65625 -0.191406 C 1.929688 -0.191406 2.148438 -0.269531 2.308594 -0.429688 C 2.46875 -0.589844 2.550781 -0.808594 2.550781 -1.085938 C 2.550781 -1.40625 2.46875 -1.648438 2.304688 -1.8125 C 2.136719 -1.972656 1.898438 -2.054688 1.578125 -2.054688 L 1.320312 -2.054688 L 1.320312 -2.332031 L 1.457031 -2.332031 C 1.773438 -2.332031 2.011719 -2.398438 2.167969 -2.53125 C 2.328125 -2.660156 2.40625 -2.859375 2.40625 -3.121094 C 2.40625 -3.359375 2.339844 -3.539062 2.210938 -3.667969 C 2.082031 -3.792969 1.894531 -3.855469 1.648438 -3.855469 C 1.40625 -3.855469 1.214844 -3.796875 1.082031 -3.679688 C 0.945312 -3.566406 0.867188 -3.394531 0.84375 -3.164062 L 0.539062 -3.164062 Z "/>
</g>
</g>
</defs>
<g fill="rgb(100%, 100%, 100%)" fill-opacity="1">
<use xlink:href="#glyph-0-0" x="30" y="25.157227"/>
<use xlink:href="#glyph-0-1" x="33" y="25.157227"/>
</g>
</svg>
