<?xml version="1.0" encoding="UTF-8"?>
<svg xmlns="http://www.w3.org/2000/svg" xmlns:xlink="http://www.w3.org/1999/xlink" width="854" height="480" viewBox="0 0 854 480">
<defs>
<g>
<g id="glyph-0-0">
<path d="M 1.671875 -0.191406 C 1.9375 -0.191406 2.140625 -0.296875 2.277344 -0.507812 C 2.414062 -0.71875 2.480469 -1.03125 2.480469 -1.441406 C 2.480469 -1.855469 2.414062 -2.167969 2.277344 -2.378906 C 2.140625 -2.589844 1.9375 -2.695312 1.671875 -2.695312 C 1.402344 -2.695312 1.203125 -2.589844 1.066406 -2.378906 C 0.929688 -2.167969 0.859375 -1.855469 0.859375 -1.441406 C 0.859375 -1.03125 0.929688 -0.71875 1.066406 -0.507812 C 1.203125 -0.296875 1.40625 -0.191406 1.671875 -0.191406 M 1.671875 0.078125 C 1.25 0.078125 0.914062 -0.0585938 0.660156 -0.335938 C 0.402344 -0.617188 0.277344 -0.984375 0.277344 -1.441406 C 0.277344 -1.902344 0.402344 -2.269531 0.65625 -2.546875 C 0.910156 -2.824219 1.25 -2.960938 1.671875 -2.960938 C 2.09375 -2.960938 2.429688 -2.824219 2.683594 -2.546875 C 2.9375 -2.269531 3.066406 -1.902344 3.066406 -1.441406 C 3.066406 -0.984375 2.9375 -0.617188 2.683594 -0.335938 C 2.429688 -0.0585938 2.09375 0.078125 1.671875 0.078125 Z "/>
</g>
<g id="glyph-0-1">
<path d="M 1.96875 -2.882812 L 2.898438 -2.882812 L 2.898438 -0.289062 L 3.371094 -0.289062 L 3.371094 0 L 2.402344 0 L 2.402344 -0.511719 C 2.308594 -0.316406 2.1875 -0.171875 2.042969 -0.0703125 C 1.894531 0.0273438 1.726562 0.078125 1.53125 0.078125 C 1.210938 0.078125 0.976562 -0.0117188 0.824219 -0.195312 C 0.675781 -0.375 0.597656 -0.660156 0.597656 -1.050781 L 0.597656 -2.59375 L 0.148438 -2.59375 L 0.148438 -2.882812 L 1.101562 -2.882812 L 1.101562 -1.203125 C 1.101562 -0.855469 1.144531 -0.613281 1.230469 -0.484375 C 1.316406 -0.351562 1.46875 -0.289062 1.691406 -0.289062 C 1.921875 -0.289062 2.097656 -0.371094 2.21875 -0.542969 C 2.339844 -0.710938 2.402344 -0.960938 2.402344 -1.28125 L 2.402344 -2.59375 L 1.96875 -2.59375 Z "/>
</g>
<g id="glyph-0-2">
<path d="M 0.597656 -2.59375 L 0.160156 -2.59375 L 0.160156 -2.882812 L 0.597656 -2.882812 L 0.597656 -3.777344 L 1.101562 -3.777344 L 1.101562 -2.882812 L 2.039062 -2.882812 L 2.039062 -2.59375 L 1.101562 -2.59375 L 1.101562 -0.761719 C 1.101562 -0.519531 1.125 -0.363281 1.171875 -0.292969 C 1.21875 -0.222656 1.304688 -0.191406 1.433594 -0.191406 C 1.5625 -0.191406 1.65625 -0.226562 1.71875 -0.304688 C 1.777344 -0.382812 1.808594 -0.507812 1.8125 -0.679688 L 2.1875 -0.679688 C 2.175781 -0.414062 2.101562 -0.222656 1.976562 -0.101562 C 1.847656 0.0195312 1.652344 0.078125 1.390625 0.078125 C 1.101562 0.078125 0.898438 0.015625 0.777344 -0.113281 C 0.660156 -0.238281 0.597656 -0.457031 0.597656 -0.761719 Z "/>
</g>
</g>
</defs>
<g fill="rgb(100%, 100%, 100%)" fill-opacity="1">
<use xlink:href="#glyph-0-0" x="30" y="25.157227"/>
<use xlink:href="#glyph-0-1" x="33" y="25.157227"/>
<use xlink:href="#glyph-0-2" x="37" y="25.157227"/>
</g>
</svg>
