<?xml version="1.0" encoding="UTF-8"?>
<svg xmlns="http://www.w3.org/2000/svg" xmlns:xlink="http://www.w3.org/1999/xlink" width="854" height="480" viewBox="0 0 854 480">
<defs>
<g>
<g id="glyph-0-0">
<path d="M 0.367188 0 L 0.367188 -0.34375 L 0.984375 -0.34375 L 0.984375 -4.511719 L 0.367188 -4.511719 L 0.367188 -4.859375 L 2.265625 -4.859375 L 2.265625 -4.511719 L 1.648438 -4.511719 L 1.648438 -2.832031 L 4.167969 -2.832031 L 4.167969 -4.511719 L 3.546875 -4.511719 L 3.546875 -4.859375 L 5.445312 -4.859375 L 5.445312 -4.511719 L 4.828125 -4.511719 L 4.828125 -0.34375 L 5.445312 -0.34375 L 5.445312 0 L 3.546875 0 L 3.546875 -0.34375 L 4.167969 -0.34375 L 4.167969 -2.433594 L 1.648438 -2.433594 L 1.648438 -0.34375 L 2.265625 -0.34375 L 2.265625 0 Z "/>
</g>
<g id="glyph-0-1">
<path d="M 0.648438 -4.535156 C 0.648438 -4.632812 0.683594 -4.722656 0.757812 -4.796875 C 0.828125 -4.867188 0.917969 -4.90625 1.019531 -4.90625 C 1.117188 -4.90625 1.203125 -4.867188 1.277344 -4.796875 C 1.351562 -4.722656 1.386719 -4.632812 1.386719 -4.535156 C 1.386719 -4.433594 1.351562 -4.34375 1.277344 -4.273438 C 1.207031 -4.203125 1.121094 -4.167969 1.019531 -4.167969 C 0.917969 -4.167969 0.828125 -4.203125 0.757812 -4.273438 C 0.683594 -4.34375 0.648438 -4.433594 0.648438 -4.535156 M 1.414062 -0.34375 L 1.980469 -0.34375 L 1.980469 0 L 0.242188 0 L 0.242188 -0.34375 L 0.8125 -0.34375 L 0.8125 -3.113281 L 0.242188 -3.113281 L 0.242188 -3.460938 L 1.414062 -3.460938 Z "/>
</g>
<g id="glyph-0-2">
<path d="M 3.5 -0.34375 L 4.070312 -0.34375 L 4.070312 0 L 2.898438 0 L 2.898438 -0.539062 C 2.78125 -0.324219 2.632812 -0.164062 2.453125 -0.0585938 C 2.273438 0.0429688 2.046875 0.09375 1.78125 0.09375 C 1.355469 0.09375 1.007812 -0.0742188 0.738281 -0.410156 C 0.46875 -0.75 0.332031 -1.1875 0.332031 -1.730469 C 0.332031 -2.273438 0.464844 -2.714844 0.734375 -3.050781 C 1.003906 -3.386719 1.351562 -3.554688 1.78125 -3.554688 C 2.046875 -3.554688 2.273438 -3.503906 2.453125 -3.398438 C 2.632812 -3.296875 2.78125 -3.136719 2.898438 -2.917969 L 2.898438 -4.71875 L 2.335938 -4.71875 L 2.335938 -5.066406 L 3.5 -5.066406 L 3.5 -0.34375 M 2.898438 -1.558594 L 2.898438 -1.902344 C 2.898438 -2.316406 2.820312 -2.632812 2.660156 -2.851562 C 2.5 -3.070312 2.269531 -3.179688 1.964844 -3.179688 C 1.65625 -3.179688 1.425781 -3.058594 1.269531 -2.816406 C 1.109375 -2.574219 1.03125 -2.210938 1.03125 -1.730469 C 1.03125 -1.253906 1.109375 -0.894531 1.269531 -0.648438 C 1.425781 -0.402344 1.65625 -0.28125 1.964844 -0.28125 C 2.269531 -0.28125 2.5 -0.390625 2.660156 -0.605469 C 2.820312 -0.824219 2.898438 -1.140625 2.898438 -1.558594 Z "/>
</g>
<g id="glyph-0-3">
<path d="M 3.613281 -1.667969 L 1.03125 -1.667969 L 1.03125 -1.640625 C 1.03125 -1.175781 1.121094 -0.820312 1.296875 -0.585938 C 1.472656 -0.347656 1.730469 -0.226562 2.074219 -0.226562 C 2.335938 -0.226562 2.550781 -0.296875 2.71875 -0.433594 C 2.886719 -0.574219 3.003906 -0.777344 3.074219 -1.046875 L 3.554688 -1.046875 C 3.460938 -0.667969 3.28125 -0.382812 3.027344 -0.191406 C 2.769531 0 2.429688 0.09375 2.011719 0.09375 C 1.507812 0.09375 1.101562 -0.0703125 0.792969 -0.40625 C 0.484375 -0.738281 0.332031 -1.179688 0.332031 -1.730469 C 0.332031 -2.277344 0.484375 -2.71875 0.785156 -3.054688 C 1.085938 -3.386719 1.480469 -3.554688 1.972656 -3.554688 C 2.496094 -3.554688 2.898438 -3.394531 3.175781 -3.070312 C 3.457031 -2.75 3.601562 -2.28125 3.613281 -1.667969 M 2.90625 -2.011719 C 2.894531 -2.414062 2.808594 -2.71875 2.652344 -2.925781 C 2.492188 -3.128906 2.269531 -3.230469 1.972656 -3.230469 C 1.695312 -3.230469 1.480469 -3.128906 1.320312 -2.921875 C 1.164062 -2.71875 1.066406 -2.414062 1.03125 -2.011719 Z "/>
</g>
<g id="glyph-0-4">
<path d="M 0.273438 0 L 0.273438 -0.34375 L 0.8125 -0.34375 L 0.8125 -3.113281 L 0.242188 -3.113281 L 0.242188 -3.460938 L 1.414062 -3.460938 L 1.414062 -2.84375 C 1.523438 -3.078125 1.667969 -3.257812 1.84375 -3.375 C 2.019531 -3.496094 2.226562 -3.554688 2.460938 -3.554688 C 2.84375 -3.554688 3.125 -3.445312 3.304688 -3.226562 C 3.484375 -3.007812 3.574219 -2.664062 3.574219 -2.199219 L 3.574219 -0.34375 L 4.109375 -0.34375 L 4.109375 0 L 2.453125 0 L 2.453125 -0.34375 L 2.972656 -0.34375 L 2.972656 -2.011719 C 2.972656 -2.433594 2.917969 -2.726562 2.816406 -2.882812 C 2.710938 -3.039062 2.527344 -3.117188 2.265625 -3.117188 C 1.988281 -3.117188 1.777344 -3.015625 1.628906 -2.8125 C 1.484375 -2.609375 1.414062 -2.316406 1.414062 -1.925781 L 1.414062 -0.34375 L 1.933594 -0.34375 L 1.933594 0 Z "/>
</g>
</g>
</defs>
<g fill="rgb(34.509804%, 76.862745%, 86.666667%)" fill-opacity="1">
<use xlink:href="#glyph-0-0" x="30" y="26.1875"/>
<use xlink:href="#glyph-0-1" x="36" y="26.1875"/>
<use xlink:href="#glyph-0-2" x="38" y="26.1875"/>
<use xlink:href="#glyph-0-2" x="42" y="26.1875"/>
<use xlink:href="#glyph-0-3" x="46" y="26.1875"/>
<use xlink:href="#glyph-0-4" x="50" y="26.1875"/>
</g>
</svg>
