<?xml version="1.0" encoding="UTF-8"?>
<svg xmlns="http://www.w3.org/2000/svg" xmlns:xlink="http://www.w3.org/1999/xlink" width="854" height="480" viewBox="0 0 854 480">
<defs>
<g>
<g id="glyph-0-0">
<path d="M 2.734375 -0.253906 C 3.265625 -0.253906 3.667969 -0.4375 3.9375 -0.800781 C 4.210938 -1.167969 4.34375 -1.707031 4.34375 -2.425781 C 4.34375 -3.144531 4.210938 -3.683594 3.9375 -4.050781 C 3.667969 -4.417969 3.265625 -4.601562 2.734375 -4.601562 C 2.199219 -4.601562 1.796875 -4.417969 1.527344 -4.050781 C 1.253906 -3.683594 1.121094 -3.144531 1.121094 -2.425781 C 1.121094 -1.707031 1.253906 -1.167969 1.527344 -0.800781 C 1.796875 -0.4375 2.199219 -0.253906 2.734375 -0.253906 M 2.734375 0.09375 C 2.40625 0.09375 2.101562 0.0390625 1.824219 -0.0703125 C 1.546875 -0.175781 1.304688 -0.335938 1.09375 -0.546875 C 0.851562 -0.789062 0.671875 -1.066406 0.550781 -1.375 C 0.433594 -1.683594 0.375 -2.03125 0.375 -2.425781 C 0.375 -2.816406 0.433594 -3.167969 0.550781 -3.476562 C 0.671875 -3.789062 0.851562 -4.0625 1.09375 -4.304688 C 1.304688 -4.519531 1.550781 -4.679688 1.824219 -4.785156 C 2.097656 -4.894531 2.398438 -4.949219 2.734375 -4.949219 C 3.441406 -4.949219 4.007812 -4.71875 4.445312 -4.253906 C 4.878906 -3.792969 5.09375 -3.183594 5.09375 -2.425781 C 5.09375 -2.035156 5.035156 -1.6875 4.914062 -1.375 C 4.796875 -1.0625 4.613281 -0.789062 4.371094 -0.546875 C 4.160156 -0.335938 3.914062 -0.175781 3.640625 -0.0664062 C 3.367188 0.0390625 3.066406 0.09375 2.734375 0.09375 Z "/>
</g>
<g id="glyph-0-1">
<path d="M 2.359375 -3.460938 L 3.480469 -3.460938 L 3.480469 -0.34375 L 4.046875 -0.34375 L 4.046875 0 L 2.878906 0 L 2.878906 -0.613281 C 2.769531 -0.382812 2.625 -0.207031 2.453125 -0.0859375 C 2.273438 0.0351562 2.070312 0.09375 1.839844 0.09375 C 1.453125 0.09375 1.171875 -0.015625 0.992188 -0.234375 C 0.808594 -0.449219 0.71875 -0.792969 0.71875 -1.257812 L 0.71875 -3.113281 L 0.179688 -3.113281 L 0.179688 -3.460938 L 1.320312 -3.460938 L 1.320312 -1.445312 C 1.320312 -1.023438 1.375 -0.734375 1.476562 -0.578125 C 1.578125 -0.421875 1.761719 -0.34375 2.027344 -0.34375 C 2.304688 -0.34375 2.515625 -0.445312 2.664062 -0.652344 C 2.808594 -0.855469 2.878906 -1.152344 2.878906 -1.539062 L 2.878906 -3.113281 L 2.359375 -3.113281 Z "/>
</g>
<g id="glyph-0-2">
<path d="M 0.71875 -3.113281 L 0.191406 -3.113281 L 0.191406 -3.460938 L 0.71875 -3.460938 L 0.71875 -4.535156 L 1.320312 -4.535156 L 1.320312 -3.460938 L 2.449219 -3.460938 L 2.449219 -3.113281 L 1.320312 -3.113281 L 1.320312 -0.914062 C 1.320312 -0.621094 1.351562 -0.433594 1.40625 -0.351562 C 1.460938 -0.269531 1.566406 -0.226562 1.71875 -0.226562 C 1.875 -0.226562 1.988281 -0.273438 2.0625 -0.367188 C 2.132812 -0.457031 2.171875 -0.609375 2.175781 -0.8125 L 2.625 -0.8125 C 2.609375 -0.5 2.523438 -0.269531 2.371094 -0.125 C 2.214844 0.0234375 1.980469 0.09375 1.667969 0.09375 C 1.320312 0.09375 1.078125 0.0195312 0.933594 -0.136719 C 0.789062 -0.289062 0.71875 -0.546875 0.71875 -0.914062 Z "/>
</g>
<g id="glyph-0-3">
<path d="M 1.367188 -1.902344 L 1.367188 -1.558594 C 1.367188 -1.140625 1.445312 -0.824219 1.605469 -0.605469 C 1.765625 -0.390625 1.996094 -0.28125 2.300781 -0.28125 C 2.605469 -0.28125 2.839844 -0.402344 2.996094 -0.648438 C 3.152344 -0.894531 3.230469 -1.253906 3.230469 -1.730469 C 3.230469 -2.210938 3.152344 -2.574219 2.996094 -2.816406 C 2.839844 -3.058594 2.605469 -3.179688 2.300781 -3.179688 C 1.996094 -3.179688 1.765625 -3.070312 1.605469 -2.851562 C 1.445312 -2.632812 1.367188 -2.316406 1.367188 -1.902344 M 0.769531 -3.113281 L 0.191406 -3.113281 L 0.191406 -3.460938 L 1.367188 -3.460938 L 1.367188 -2.917969 C 1.484375 -3.136719 1.632812 -3.296875 1.816406 -3.398438 C 1.996094 -3.503906 2.21875 -3.554688 2.488281 -3.554688 C 2.914062 -3.554688 3.257812 -3.386719 3.527344 -3.050781 C 3.796875 -2.714844 3.933594 -2.273438 3.933594 -1.730469 C 3.933594 -1.1875 3.796875 -0.75 3.527344 -0.410156 C 3.257812 -0.0742188 2.914062 0.09375 2.488281 0.09375 C 2.21875 0.09375 1.996094 0.0429688 1.816406 -0.0585938 C 1.632812 -0.164062 1.484375 -0.324219 1.367188 -0.539062 L 1.367188 1.039062 L 1.933594 1.039062 L 1.933594 1.386719 L 0.191406 1.386719 L 0.191406 1.039062 L 0.769531 1.039062 Z "/>
</g>
</g>
</defs>
<g fill="rgb(34.509804%, 76.862745%, 86.666667%)" fill-opacity="1">
<use xlink:href="#glyph-0-0" x="30" y="26.1875"/>
<use xlink:href="#glyph-0-1" x="35" y="26.1875"/>
<use xlink:href="#glyph-0-2" x="39" y="26.1875"/>
<use xlink:href="#glyph-0-3" x="42" y="26.1875"/>
<use xlink:href="#glyph-0-1" x="46" y="26.1875"/>
<use xlink:href="#glyph-0-2" x="50" y="26.1875"/>
</g>
</svg>
